<svg id="Capa_1" enable-background="new 0 0 512 512" height="512" viewBox="0 0 512 512" width="512" xmlns="http://www.w3.org/2000/svg"><g><path d="m335.08 175.217v-140.45c0-4.866-3.944-8.81-8.81-8.81h-317.46c-4.866 0-8.81 3.944-8.81 8.81v204.08c0 4.86 3.94 8.8 8.8 8.8h57.47c8.284 0 15 6.716 15 15v36.269c0 10.082 12.156 15.169 19.336 8.091l51.934-51.19v-42.16c0-21.23 17.21-38.44 38.44-38.44zm-225.77 15.9h-42.87c-8.28 0-15-6.71-15-15 0-8.28 6.72-15 15-15h42.87c8.29 0 15 6.72 15 15 0 8.29-6.71 15-15 15zm-42.87-78.63c-8.28 0-15-6.71-15-15 0-8.28 6.72-15 15-15h202.2c8.28 0 15 6.72 15 15 0 8.29-6.72 15-15 15z"/><path d="m503.56 205.217c-9.782 0-306.65 0-312.58 0-4.642 0-8.44 3.798-8.44 8.44v200.94c0 4.642 3.798 8.44 8.44 8.44h178.42c3.94 0 7.73 1.55 10.53 4.31l56.621 55.798c6.32 6.229 17.019 1.751 17.019-7.123v-37.985c0-8.284 6.716-15 15-15h34.99c4.642 0 8.44-3.798 8.44-8.44v-200.94c0-4.642-3.798-8.44-8.44-8.44zm-242.79 125.76c-15.02 0-22.457-18.223-11.91-28.77 10.659-10.625 28.76-2.979 28.76 11.92 0 9.364-7.6 16.85-16.85 16.85zm86.5 0c-15.059 0-22.431-18.26-11.92-28.77 6.603-6.581 17.252-6.567 23.84 0 10.503 10.503 3.151 28.77-11.92 28.77zm86.49 0c-9.3 0-16.84-7.55-16.84-16.85 0-15.037 18.199-22.447 28.76-11.92 10.519 10.553 3.119 28.77-11.92 28.77z"/></g></svg>