<?xml version="1.0"?>
<svg xmlns="http://www.w3.org/2000/svg" xmlns:xlink="http://www.w3.org/1999/xlink" xmlns:svgjs="http://svgjs.com/svgjs" version="1.1" width="512" height="512" x="0" y="0" viewBox="0 0 512 512" style="enable-background:new 0 0 512 512" xml:space="preserve" class=""><g><path xmlns="http://www.w3.org/2000/svg" d="m151.361 302.714a26.843 26.843 0 0 0 9.328-1.643l91.511-35.241 7-18.506a6 6 0 0 1 3.409-3.458l99.785-39.4a6 6 0 0 1 7.4 8.588l-3.93 6.786 112.6-44.579a18.273 18.273 0 0 0 -.467-34.157 121.815 121.815 0 0 0 -96.8 5.926l-225.626 111.086a6 6 0 0 1 -6.061-.448l-53.385-36.9a57.606 57.606 0 0 0 -54.062-6.185l-14.321 5.67 85.2 69.173a58.344 58.344 0 0 0 38.419 13.288z" fill="#ffffff" data-original="#000000" style="" class=""/><path xmlns="http://www.w3.org/2000/svg" d="m260.27 378.24 90.493-156.279-81.282 32.091-46.961 124.188z" fill="#ffffff" data-original="#000000" style="" class=""/><path xmlns="http://www.w3.org/2000/svg" d="m299.715 173.77-99.062-36.393-20.264 12.326 72.843 46.953z" fill="#ffffff" data-original="#000000" style="" class=""/></g></svg>
